<svg xmlns="http://www.w3.org/2000/svg" viewBox="0 0 509.34 113.74"><defs><style>.cls-1{fill:#fff;}.cls-2{fill:#38b9eb;}</style></defs><g id="Layer_2" data-name="Layer 2"><g id="Layer_1-2" data-name="Layer 1"><path class="cls-1" d="M86.84,110.29H83.75l1.06-6.2a1.85,1.85,0,0,0,0-.41.43.43,0,0,0-.16-.31.84.84,0,0,0-.27-.13,1.87,1.87,0,0,0-.38,0h-2l-.66,3.88-.54,3.2H76.53l.48-2.82h1.32l.72-4.23H77.92l.81-2.84,1.21,0,1.15,0,1,0h2.54c.3,0,.6,0,.89,0l.76.05a2.92,2.92,0,0,1,1,.28,1.65,1.65,0,0,1,.71.62,1.21,1.21,0,0,1,.13.35,2.68,2.68,0,0,1,.05.42c0,.15,0,.3,0,.46s0,.31-.07.46Z"/><path class="cls-1" d="M92.39,110.29h-3.1l1.2-7.05H89.35l.8-2.89h3.93Z"/><path class="cls-1" d="M98.64,105.94H95.58l.46-2.7H94.93l.81-2.89h3.85Z"/><path class="cls-1" d="M109.58,100.35l-1.19,5.75a11.27,11.27,0,0,1-.34,1.19,5.9,5.9,0,0,1-.55,1.13,4.35,4.35,0,0,1-.82,1,3.51,3.51,0,0,1-1.15.65,3.29,3.29,0,0,1-.62.16c-.23,0-.46.07-.71.09s-.48,0-.72.06l-.62,0h-.57l-.66,0-.61,0-.38-.06.9-2.73h1.84a3.69,3.69,0,0,0,.71-.06,1.32,1.32,0,0,0,.54-.23,1.14,1.14,0,0,0,.38-.43,2.1,2.1,0,0,0,.23-.67l.56-2.84h-5.3l.92-5.37h3.11l-.42,2.48Z"/><path class="cls-1" d="M120.63,100.72l-1.19,5.76a6,6,0,0,1-.56,1.61,4.05,4.05,0,0,1-1,1.19,4,4,0,0,1-.92.56,5.12,5.12,0,0,1-1.07.32,9.47,9.47,0,0,1-1.25.16c-.44,0-.92,0-1.43,0H112l-.45,0-2.31-.07.46-2.69h1.88l-.43-7.1,0-.11h3.11l.45,7.23h.16a1.78,1.78,0,0,0,1.07-.27,1.57,1.57,0,0,0,.49-1l.62-3.18H116l.85-2.81h3.89Z"/><path class="cls-1" d="M130.86,110.29H126l.49-2.85h1.75l.39-2.29.19-1.06a.73.73,0,0,0-.25-.8.85.85,0,0,0-.33-.11,3,3,0,0,0-.42,0c-.28,0-.57,0-.87,0a6.8,6.8,0,0,0-.9.06.84.84,0,0,0-.34.09.29.29,0,0,0-.14.19l-1.72,6.83h-3.15l1.77-6.81-.31-2.85,0-.28h3.23l.21,1.22h.1l1.54-1.18a6.25,6.25,0,0,1,.68-.09l.9,0,.94,0,.36,0,.35,0a2.5,2.5,0,0,1,.8.26,1.28,1.28,0,0,1,.58.52,1.81,1.81,0,0,1,.26.93c0,.17,0,.36,0,.57a6.54,6.54,0,0,1-.1.7Z"/><path class="cls-1" d="M142.61,100.35l-1.19,5.75a11.27,11.27,0,0,1-.34,1.19,5.37,5.37,0,0,1-.55,1.13,4.35,4.35,0,0,1-.82,1,3.51,3.51,0,0,1-1.15.65,3.18,3.18,0,0,1-.61.16q-.34.06-.72.09l-.71.06-.63,0h-.57l-.66,0-.61,0-.38-.06.9-2.73h1.84a3.69,3.69,0,0,0,.71-.06,1.32,1.32,0,0,0,.54-.23,1.14,1.14,0,0,0,.38-.43,2.1,2.1,0,0,0,.23-.67l.57-2.84h-5.31l.92-5.37h3.11l-.42,2.48Z"/><path class="cls-1" d="M151.46,105.94H148.4l.46-2.7h-1.11l.81-2.89h3.86Z"/><path class="cls-1" d="M163.43,100.46l-2.32,5.37h-1.65l2,4.34,0,.12h-8.64l.48-2.82h3.33l-1.83-4.31h-1.65l1.09-2.81h3l1.6,3.85,1.61-3.85h3Z"/><path class="cls-1" d="M170.81,110.29h-3.1l.93-5.51c0-.13,0-.25.06-.36l0-.35a1.1,1.1,0,0,0,0-.43.45.45,0,0,0-.17-.25.64.64,0,0,0-.29-.12,2.33,2.33,0,0,0-.4,0h-3.91l.73-2.83c.57,0,1.12-.08,1.65-.1s1.09,0,1.65,0h1l.57,0,.48,0,.5.07a2.9,2.9,0,0,1,.48.14,2.14,2.14,0,0,1,.43.26,1.73,1.73,0,0,1,.37.39,1.82,1.82,0,0,1,.3.86,4.85,4.85,0,0,1,0,1,3,3,0,0,1-.07.47l-.09.47Z"/><path class="cls-1" d="M184.15,100.49l-2.43,5.39-1.53.06,2.21,4.29v.06h-3.72l-2.11-4.23-1.6,4.23H172l0-.13,2.22-5.42,1.57-.09-.92-1.51h-1.67l1.13-2.79h3.14l2,4,1.7-4h2.95Z"/><path class="cls-1" d="M198.33,110.29h-3.09l1.06-6.2a1.86,1.86,0,0,0,0-.41.4.4,0,0,0-.16-.31.84.84,0,0,0-.27-.13,1.81,1.81,0,0,0-.38,0h-1.94l-.66,3.88-.55,3.2H188l.48-2.82h1.33l.72-4.23h-1.13l.8-2.84,1.21,0,1.15,0,1,0h2.54q.47,0,.9,0l.75.05a2.91,2.91,0,0,1,1,.28,1.62,1.62,0,0,1,.7.62,1.22,1.22,0,0,1,.14.35,2.72,2.72,0,0,1,0,.42,2.4,2.4,0,0,1,0,.46l-.06.46Z"/><path class="cls-1" d="M203.87,110.29h-3.09l1.2-7.05h-1.15l.81-2.89h3.93Z"/><path class="cls-1" d="M215.38,110.29h-3.11l1-5.77c0-.11.05-.23.07-.35a2,2,0,0,0,0-.33c0-.25,0-.42-.17-.49a.8.8,0,0,0-.47-.11h-2.52l-1.2,7.05h-3.11l1.67-9.83,1-.07,1.05,0,1,0,1,0h1.41l.68,0,.54,0,.66.1.6.12a1.53,1.53,0,0,1,.9.68,1.63,1.63,0,0,1,.2.65,5.48,5.48,0,0,1,0,.78c0,.15,0,.28,0,.41a2.75,2.75,0,0,1-.05.34l-.11.67Z"/><path class="cls-1" d="M221.52,105.94h-3.06l.46-2.7h-1.11l.8-2.89h3.86Z"/><path class="cls-1" d="M233.4,102.87l-.64,3.54-.06.3c0,.1,0,.22-.07.35s-.11.48-.16.64a4.17,4.17,0,0,1-.81,1.46,3.51,3.51,0,0,1-2.16,1.08l-.87.08-.51,0-.63,0H225.2l-1.14,0-1,0a5.33,5.33,0,0,1-.58-.07l1.53-9.85h3.15L226,107.51h2.12l.72,0a.86.86,0,0,0,.49-.15,1.09,1.09,0,0,0,.26-.28,2,2,0,0,0,.15-.39l.09-.4c0-.14.06-.3.1-.5l.52-2.71h-.11l-.8,1h-2.62V104l2.82-3.62h4.06Z"/><path class="cls-1" d="M243.56,107.44l-1.18,2.85h-8.73l.48-2.85h5.13l.54-3.17s0-.09,0-.14,0-.13,0-.22a1.46,1.46,0,0,0,0-.29.43.43,0,0,0-.14-.25.61.61,0,0,0-.32-.11,2.82,2.82,0,0,0-.42,0h-4.17l.73-2.84.86-.05.86,0,.81,0h1.5l.88,0,.8,0a4.54,4.54,0,0,1,.54.05,2.62,2.62,0,0,1,.71.25,1.44,1.44,0,0,1,.46.43,1.31,1.31,0,0,1,.23.56,2.85,2.85,0,0,1,0,.66c0,.12,0,.22,0,.3a1.87,1.87,0,0,1,0,.25c0,.08,0,.16,0,.25a3.09,3.09,0,0,1-.06.34l-.52,3.1-.16.9Z"/><path class="cls-1" d="M248,110.29h-3.1l1.2-7.05h-1.14l.8-2.89h3.93Z"/><path class="cls-1" d="M257.54,110.29h-3.11l.94-5.53h3.11Zm6.14,0h-3.12l1-5.65.06-.42a1.64,1.64,0,0,0,0-.38.71.71,0,0,0-.09-.31.58.58,0,0,0-.2-.18,1.4,1.4,0,0,0-.29-.09l-.33,0h-5.2l.72-2.82,1.56-.07.67,0,.69,0,.65,0h1.33l.87,0,.81.06.59.09a2.36,2.36,0,0,1,1,.46,1.56,1.56,0,0,1,.47.72,2.57,2.57,0,0,1,.09.94,10.54,10.54,0,0,1-.14,1.15Z"/><path class="cls-1" d="M268.22,113.74h-3.11l1.5-8.84h3.11ZM276.53,102l-3.14,8.34h-3.12l0-.09,2.6-7h-6.44l.89-2.89h9.46Z"/><path class="cls-1" d="M280.52,110.29h-3.09l1.2-7.05h-1.15l.81-2.89h3.92Z"/><path class="cls-1" d="M288.88,103.24h-1.79l0,6.94v.11h-3.26l.13-4.92,1.08-2.13h-2l.94-2.89h5.35Z"/><path class="cls-1" d="M299,110.29h-3.1l1-5.77c0-.11,0-.23.07-.35a2,2,0,0,0,0-.33c0-.25-.06-.42-.17-.49a.8.8,0,0,0-.47-.11h-2.52l-1.21,7.05h-3.11l1.68-9.83,1-.07,1.06,0,1.05,0,1,0h1.42l.67,0,.55,0,.66.1.6.12a1.51,1.51,0,0,1,.89.68,1.48,1.48,0,0,1,.2.65,7.22,7.22,0,0,1,0,.78c0,.15,0,.28-.05.41s0,.24-.05.34l-.11.67Z"/><path class="cls-1" d="M310.78,110.29h-3.09l1.06-6.2a1.85,1.85,0,0,0,0-.41.43.43,0,0,0-.16-.31.84.84,0,0,0-.27-.13,1.87,1.87,0,0,0-.38,0H306l-.66,3.88-.54,3.2h-4.34l.48-2.82h1.32l.72-4.23h-1.13l.81-2.84,1.2,0,1.16,0,1,0h2.53q.46,0,.9,0l.76.05a2.92,2.92,0,0,1,1,.28,1.57,1.57,0,0,1,.7.62,1,1,0,0,1,.14.35,2.68,2.68,0,0,1,.05.42,3.67,3.67,0,0,1,0,.46c0,.15,0,.31-.06.46Z"/><path class="cls-1" d="M324.28,113.74h-3.11l1.54-9.07.06-.37a1.31,1.31,0,0,0,0-.33,2.69,2.69,0,0,0,0-.31.36.36,0,0,0-.15-.25.71.71,0,0,0-.33-.15l-.49,0h-3.89l.72-2.78,1.56-.11.54,0,.52,0h1.82l.57,0,.49,0a4.83,4.83,0,0,1,1.07.25,1.47,1.47,0,0,1,.67.53,1.2,1.2,0,0,1,.25.59,4.57,4.57,0,0,1,0,.66,5.16,5.16,0,0,1-.08.78c0,.27-.09.54-.13.81Z"/><path class="cls-1" d="M334.34,110.29h-3.1l.94-5.51c0-.13,0-.25.05-.36s0-.23,0-.35a1.13,1.13,0,0,0,0-.43.52.52,0,0,0-.18-.25.6.6,0,0,0-.28-.12,2.46,2.46,0,0,0-.41,0h-3.91l.73-2.83c.57,0,1.12-.08,1.66-.1s1.08,0,1.65,0h1l.56,0,.48,0,.5.07a2.43,2.43,0,0,1,.48.14,1.9,1.9,0,0,1,.43.26,1.54,1.54,0,0,1,.37.39,1.71,1.71,0,0,1,.3.86,5.62,5.62,0,0,1,0,1c0,.14,0,.3-.07.47a4.3,4.3,0,0,0-.09.47Z"/><path class="cls-1" d="M347.18,100.72,346,106.48a6,6,0,0,1-.56,1.61,3.9,3.9,0,0,1-1,1.19,4,4,0,0,1-.92.56,5.12,5.12,0,0,1-1.07.32,9.47,9.47,0,0,1-1.25.16c-.44,0-.92,0-1.43,0h-1.21l-.45,0-2.31-.07.46-2.69h1.88l-.43-7.1,0-.11h3.11l.45,7.23h.16a1.78,1.78,0,0,0,1.07-.27,1.57,1.57,0,0,0,.49-1l.62-3.18H342.5l.85-2.81h3.89Z"/><path class="cls-1" d="M357.41,110.29h-4.85l.49-2.85h1.75l.4-2.29.18-1.06a.73.73,0,0,0-.25-.8.85.85,0,0,0-.33-.11,3,3,0,0,0-.42,0c-.28,0-.57,0-.87,0a6.8,6.8,0,0,0-.9.06.84.84,0,0,0-.34.09.29.29,0,0,0-.14.19l-1.72,6.83h-3.15l1.77-6.81-.31-2.85,0-.28H352l.21,1.22h.1l1.54-1.18a6.25,6.25,0,0,1,.68-.09l.9,0,.94,0,.36,0,.35,0a2.5,2.5,0,0,1,.8.26,1.28,1.28,0,0,1,.58.52,1.81,1.81,0,0,1,.26.93c0,.17,0,.36,0,.57s-.05.45-.09.7Z"/><polygon class="cls-1" points="105.92 86.79 112.8 50.63 135.91 86.79 169.35 86.79 169.81 86.47 138.96 38.22 177.94 0 143.84 0 117.52 25.81 122.43 0 96.18 0 79.67 86.79 105.92 86.79"/><polygon class="cls-2" points="318.55 0 302.04 86.79 328.2 86.79 344.71 0 318.55 0"/><polygon class="cls-1" points="235.85 0 216.02 19.44 203.59 0 187.09 0 176.27 10.61 197.54 43.88 189.38 86.79 215.63 86.79 223.47 45.58 269.95 0 235.85 0"/><polygon class="cls-2" points="237.79 40.55 229.18 86.79 255.34 86.79 269.95 9.02 237.79 40.55"/><path class="cls-1" d="M74.63,75.18l6.08-31.94c-3.67-7-11-11.61-20.25-11.61H40.87a1.07,1.07,0,0,1-1.08-1.32l.52-2.73a1.68,1.68,0,0,1,1.59-1.33h42L88.93,0h-42C31.68,0,17,12.37,14.07,27.58l-.52,2.73c-2.9,15.2,7.12,27.57,22.33,27.57H55.47a1.07,1.07,0,0,1,1.07,1.33A1.68,1.68,0,0,1,55,60.54H5L0,86.79H50C59.22,86.79,68.29,82.2,74.63,75.18Z"/><polygon class="cls-2" points="299.53 60.54 279.4 60.54 260.26 60.54 255.27 86.79 294.53 86.79 299.53 60.54"/><polygon class="cls-2" points="352.54 0 336.03 86.79 362.19 86.79 378.7 0 352.54 0"/><polygon class="cls-2" points="451.89 0 435.38 86.79 461.55 86.79 478.05 0 451.89 0"/><polygon class="cls-2" points="415.56 0 397.59 0 378.45 0 373.45 26.25 410.56 26.25 415.56 0"/><polygon class="cls-2" points="509.35 0 442.55 0 423.41 0 418.42 26.25 504.35 26.25 509.35 0"/><polygon class="cls-2" points="408.3 34.3 383.69 34.3 364.55 34.3 359.56 60.54 403.31 60.54 408.3 34.3"/></g></g></svg>